{
  "asset": {
    "generator": "glTF-Transform v4.5.1",
    "version": "2.0"
  },
  "accessors": [
    {
      "type": "VEC3",
      "componentType": 5126,
      "count": 288,
      "max": [
        0.28936314582824707,
        0.8373162150382996,
        0.2894185185432434
      ],
      "min": [
        -0.2893601655960083,
        0.8220306038856506,
        -0.2894226908683777
      ],
      "bufferView": 0,
      "byteOffset": 0
    },
    {
      "type": "VEC3",
      "componentType": 5126,
      "count": 288,
      "bufferView": 0,
      "byteOffset": 12
    },
    {
      "type": "VEC2",
      "componentType": 5126,
      "count": 288,
      "bufferView": 0,
      "byteOffset": 24
    },
    {
      "type": "SCALAR",
      "componentType": 5123,
      "count": 672,
      "bufferView": 1,
      "byteOffset": 0
    },
    {
      "type": "SCALAR",
      "componentType": 5123,
      "count": 504,
      "bufferView": 1,
      "byteOffset": 1344
    },
    {
      "type": "SCALAR",
      "componentType": 5123,
      "count": 30612,
      "bufferView": 1,
      "byteOffset": 2352
    },
    {
      "type": "SCALAR",
      "componentType": 5123,
      "count": 672,
      "bufferView": 1,
      "byteOffset": 63576
    },
    {
      "type": "VEC3",
      "componentType": 5126,
      "count": 113,
      "max": [
        0.028619397431612015,
        0.46249890327453613,
        0.38508278131484985
      ],
      "min": [
        -0.02382810413837433,
        0.41005033254623413,
        0.3429100811481476
      ],
      "bufferView": 2,
      "byteOffset": 0
    },
    {
      "type": "VEC3",
      "componentType": 5126,
      "count": 113,
      "bufferView": 2,
      "byteOffset": 12
    },
    {
      "type": "VEC2",
      "componentType": 5126,
      "count": 113,
      "bufferView": 2,
      "byteOffset": 24
    },
    {
      "type": "VEC3",
      "componentType": 5126,
      "count": 9342,
      "max": [
        0.3709522783756256,
        0.8719475269317627,
        0.37095266580581665
      ],
      "min": [
        -0.37094923853874207,
        0.0006841719150543213,
        -0.37095293402671814
      ],
      "bufferView": 3,
      "byteOffset": 0
    },
    {
      "type": "VEC3",
      "componentType": 5126,
      "count": 9342,
      "bufferView": 3,
      "byteOffset": 12
    },
    {
      "type": "VEC2",
      "componentType": 5126,
      "count": 9342,
      "bufferView": 3,
      "byteOffset": 24
    },
    {
      "type": "VEC3",
      "componentType": 5126,
      "count": 288,
      "max": [
        0.28936323523521423,
        0.050518572330474854,
        0.2894185185432434
      ],
      "min": [
        -0.2893602252006531,
        0.03523290157318115,
        -0.28942275047302246
      ],
      "bufferView": 4,
      "byteOffset": 0
    },
    {
      "type": "VEC3",
      "componentType": 5126,
      "count": 288,
      "bufferView": 4,
      "byteOffset": 12
    },
    {
      "type": "VEC2",
      "componentType": 5126,
      "count": 288,
      "bufferView": 4,
      "byteOffset": 24
    }
  ],
  "bufferViews": [
    {
      "buffer": 0,
      "byteOffset": 0,
      "byteLength": 9216,
      "byteStride": 32,
      "target": 34962
    },
    {
      "buffer": 0,
      "byteOffset": 9216,
      "byteLength": 64920,
      "target": 34963
    },
    {
      "buffer": 0,
      "byteOffset": 74136,
      "byteLength": 3616,
      "byteStride": 32,
      "target": 34962
    },
    {
      "buffer": 0,
      "byteOffset": 77752,
      "byteLength": 298944,
      "byteStride": 32,
      "target": 34962
    },
    {
      "buffer": 0,
      "byteOffset": 376696,
      "byteLength": 9216,
      "byteStride": 32,
      "target": 34962
    }
  ],
  "samplers": [
    {
      "magFilter": 9729,
      "minFilter": 9987,
      "wrapS": 10497,
      "wrapT": 10497
    }
  ],
  "textures": [
    {
      "source": 1,
      "sampler": 0
    },
    {
      "source": 0,
      "sampler": 0
    },
    {
      "source": 2,
      "sampler": 0
    }
  ],
  "images": [
    {
      "name": "wine_barrel_01_nor_gl",
      "mimeType": "image/jpeg",
      "uri": "textures/wine_barrel_01_nor_gl_1k.jpg"
    },
    {
      "name": "wine_barrel_01_diff",
      "mimeType": "image/jpeg",
      "uri": "textures/wine_barrel_01_diff_1k.jpg"
    },
    {
      "name": "wine_barrel_01_metal-wine_barrel_01_rough",
      "mimeType": "image/jpeg",
      "uri": "textures/wine_barrel_01_arm_1k.jpg"
    }
  ],
  "buffers": [
    {
      "uri": "wine_barrel_01.bin",
      "byteLength": 385912
    }
  ],
  "materials": [
    {
      "name": "wine_barrel_01",
      "doubleSided": true,
      "pbrMetallicRoughness": {
        "baseColorTexture": {
          "index": 0
        },
        "metallicRoughnessTexture": {
          "index": 2
        }
      },
      "normalTexture": {
        "index": 1
      }
    }
  ],
  "meshes": [
    {
      "name": "DiameterSmall.012",
      "primitives": [
        {
          "attributes": {
            "POSITION": 0,
            "NORMAL": 1,
            "TEXCOORD_0": 2
          },
          "mode": 4,
          "material": 0,
          "indices": 3
        }
      ]
    },
    {
      "name": "Cylinder.014",
      "primitives": [
        {
          "attributes": {
            "POSITION": 7,
            "NORMAL": 8,
            "TEXCOORD_0": 9
          },
          "mode": 4,
          "material": 0,
          "indices": 4
        }
      ]
    },
    {
      "name": "Plane.006",
      "primitives": [
        {
          "attributes": {
            "POSITION": 10,
            "NORMAL": 11,
            "TEXCOORD_0": 12
          },
          "mode": 4,
          "material": 0,
          "indices": 5
        }
      ]
    },
    {
      "name": "DiameterSmall.004",
      "primitives": [
        {
          "attributes": {
            "POSITION": 13,
            "NORMAL": 14,
            "TEXCOORD_0": 15
          },
          "mode": 4,
          "material": 0,
          "indices": 6
        }
      ]
    }
  ],
  "nodes": [
    {
      "name": "wine_barrel_01_Lid",
      "mesh": 0
    },
    {
      "name": "wine_barrel_01_bung",
      "mesh": 1
    },
    {
      "name": "wine_barrel_01",
      "mesh": 2
    },
    {
      "name": "wine_barrel_01_base",
      "mesh": 3
    }
  ],
  "scenes": [
    {
      "name": "Scene",
      "nodes": [
        0,
        1,
        2,
        3
      ]
    }
  ],
  "scene": 0
}