{
  "asset": {
    "generator": "glTF-Transform v4.5.1",
    "version": "2.0"
  },
  "accessors": [
    {
      "type": "VEC3",
      "componentType": 5126,
      "count": 14262,
      "max": [
        0.29662641882896423,
        1.4024649858474731,
        0.5968921184539795
      ],
      "min": [
        -0.2966264486312866,
        -0.00004776567220687866,
        -0.09563499689102173
      ],
      "bufferView": 0,
      "byteOffset": 0
    },
    {
      "type": "VEC3",
      "componentType": 5126,
      "count": 14262,
      "bufferView": 0,
      "byteOffset": 12
    },
    {
      "type": "VEC2",
      "componentType": 5126,
      "count": 14262,
      "bufferView": 0,
      "byteOffset": 24
    },
    {
      "type": "SCALAR",
      "componentType": 5123,
      "count": 39660,
      "bufferView": 1,
      "byteOffset": 0
    }
  ],
  "bufferViews": [
    {
      "buffer": 0,
      "byteOffset": 0,
      "byteLength": 456384,
      "byteStride": 32,
      "target": 34962
    },
    {
      "buffer": 0,
      "byteOffset": 456384,
      "byteLength": 79320,
      "target": 34963
    }
  ],
  "samplers": [
    {
      "magFilter": 9729,
      "minFilter": 9987,
      "wrapS": 10497,
      "wrapT": 10497
    }
  ],
  "textures": [
    {
      "source": 1,
      "sampler": 0
    },
    {
      "source": 0,
      "sampler": 0
    },
    {
      "source": 2,
      "sampler": 0
    }
  ],
  "images": [
    {
      "name": "hand_truck_nor_gl",
      "mimeType": "image/jpeg",
      "uri": "textures/hand_truck_nor_gl_1k.jpg"
    },
    {
      "name": "hand_truck_diff",
      "mimeType": "image/jpeg",
      "uri": "textures/hand_truck_diff_1k.jpg"
    },
    {
      "name": "hand_truck_metal-hand_truck_rough",
      "mimeType": "image/jpeg",
      "uri": "textures/hand_truck_arm_1k.jpg"
    }
  ],
  "buffers": [
    {
      "uri": "hand_truck.bin",
      "byteLength": 535704
    }
  ],
  "materials": [
    {
      "name": "hand_truck",
      "doubleSided": true,
      "pbrMetallicRoughness": {
        "baseColorTexture": {
          "index": 0
        },
        "metallicRoughnessTexture": {
          "index": 2
        }
      },
      "normalTexture": {
        "index": 1
      }
    }
  ],
  "meshes": [
    {
      "name": "hand_truck",
      "primitives": [
        {
          "attributes": {
            "POSITION": 0,
            "NORMAL": 1,
            "TEXCOORD_0": 2
          },
          "mode": 4,
          "material": 0,
          "indices": 3
        }
      ]
    }
  ],
  "nodes": [
    {
      "name": "hand_truck",
      "mesh": 0
    }
  ],
  "scenes": [
    {
      "name": "Scene",
      "nodes": [
        0
      ]
    }
  ],
  "scene": 0
}