{
  "asset": {
    "generator": "glTF-Transform v4.5.1",
    "version": "2.0"
  },
  "accessors": [
    {
      "type": "VEC3",
      "componentType": 5126,
      "count": 254,
      "max": [
        0.15002740919589996,
        0.6317126154899597,
        0.16525021195411682
      ],
      "min": [
        -0.15002743899822235,
        0.002168611390516162,
        -0.1932590901851654
      ],
      "bufferView": 0,
      "byteOffset": 0
    },
    {
      "type": "VEC3",
      "componentType": 5126,
      "count": 254,
      "bufferView": 0,
      "byteOffset": 12
    },
    {
      "type": "VEC2",
      "componentType": 5126,
      "count": 254,
      "bufferView": 0,
      "byteOffset": 24
    },
    {
      "type": "SCALAR",
      "componentType": 5123,
      "count": 684,
      "bufferView": 1,
      "byteOffset": 0
    }
  ],
  "bufferViews": [
    {
      "buffer": 0,
      "byteOffset": 0,
      "byteLength": 8128,
      "byteStride": 32,
      "target": 34962
    },
    {
      "buffer": 0,
      "byteOffset": 8128,
      "byteLength": 1368,
      "target": 34963
    }
  ],
  "samplers": [
    {
      "magFilter": 9729,
      "minFilter": 9987,
      "wrapS": 10497,
      "wrapT": 10497
    }
  ],
  "textures": [
    {
      "source": 1,
      "sampler": 0
    },
    {
      "source": 0,
      "sampler": 0
    },
    {
      "source": 2,
      "sampler": 0
    }
  ],
  "images": [
    {
      "name": "WetFloorSign_01_nor_gl",
      "mimeType": "image/jpeg",
      "uri": "textures/WetFloorSign_01_nor_gl_1k.jpg"
    },
    {
      "name": "WetFloorSign_01_diff",
      "mimeType": "image/jpeg",
      "uri": "textures/WetFloorSign_01_diff_1k.jpg"
    },
    {
      "name": "WetFloorSign_01_metallic-WetFloorSign_01_roughness",
      "mimeType": "image/jpeg",
      "uri": "textures/WetFloorSign_01_arm_1k.jpg"
    }
  ],
  "buffers": [
    {
      "uri": "WetFloorSign_01.bin",
      "byteLength": 9496
    }
  ],
  "materials": [
    {
      "name": "WetFloorSign_01",
      "doubleSided": true,
      "pbrMetallicRoughness": {
        "baseColorTexture": {
          "index": 0
        },
        "metallicRoughnessTexture": {
          "index": 2
        }
      },
      "normalTexture": {
        "index": 1
      }
    }
  ],
  "meshes": [
    {
      "name": "Mesh",
      "primitives": [
        {
          "attributes": {
            "POSITION": 0,
            "NORMAL": 1,
            "TEXCOORD_0": 2
          },
          "mode": 4,
          "material": 0,
          "indices": 3
        }
      ]
    }
  ],
  "nodes": [
    {
      "name": "WetFloorSign_01",
      "mesh": 0
    }
  ],
  "scenes": [
    {
      "name": "Scene",
      "nodes": [
        0
      ]
    }
  ],
  "scene": 0
}