{
  "asset": {
    "generator": "glTF-Transform v4.5.1",
    "version": "2.0"
  },
  "accessors": [
    {
      "type": "VEC3",
      "componentType": 5126,
      "count": 3271,
      "max": [
        0.3209305703639984,
        0.8798216581344604,
        0.2916412651538849
      ],
      "min": [
        -0.3209305703639984,
        -0.00001953914761543274,
        -0.335950642824173
      ],
      "bufferView": 0,
      "byteOffset": 0
    },
    {
      "type": "VEC3",
      "componentType": 5126,
      "count": 3271,
      "bufferView": 0,
      "byteOffset": 12
    },
    {
      "type": "VEC2",
      "componentType": 5126,
      "count": 3271,
      "bufferView": 0,
      "byteOffset": 24
    },
    {
      "type": "SCALAR",
      "componentType": 5123,
      "count": 10068,
      "bufferView": 1,
      "byteOffset": 0
    }
  ],
  "bufferViews": [
    {
      "buffer": 0,
      "byteOffset": 0,
      "byteLength": 104672,
      "byteStride": 32,
      "target": 34962
    },
    {
      "buffer": 0,
      "byteOffset": 104672,
      "byteLength": 20136,
      "target": 34963
    }
  ],
  "samplers": [
    {
      "magFilter": 9729,
      "minFilter": 9987,
      "wrapS": 10497,
      "wrapT": 10497
    }
  ],
  "textures": [
    {
      "source": 1,
      "sampler": 0
    },
    {
      "source": 0,
      "sampler": 0
    },
    {
      "source": 2,
      "sampler": 0
    }
  ],
  "images": [
    {
      "name": "plastic_monobloc_chair_01_nor_gl",
      "mimeType": "image/jpeg",
      "uri": "textures/plastic_monobloc_chair_01_nor_gl_1k.jpg"
    },
    {
      "name": "plastic_monobloc_chair_01_diff",
      "mimeType": "image/jpeg",
      "uri": "textures/plastic_monobloc_chair_01_diff_1k.jpg"
    },
    {
      "name": "plastic_monobloc_chair_01_metal-plastic_monobloc_chair_01_rough",
      "mimeType": "image/jpeg",
      "uri": "textures/plastic_monobloc_chair_01_arm_1k.jpg"
    }
  ],
  "buffers": [
    {
      "uri": "plastic_monobloc_chair_01.bin",
      "byteLength": 124808
    }
  ],
  "materials": [
    {
      "name": "plastic_monobloc_chair_01",
      "doubleSided": true,
      "pbrMetallicRoughness": {
        "baseColorTexture": {
          "index": 0
        },
        "metallicRoughnessTexture": {
          "index": 2
        }
      },
      "normalTexture": {
        "index": 1
      }
    }
  ],
  "meshes": [
    {
      "name": "Plane.002",
      "primitives": [
        {
          "attributes": {
            "POSITION": 0,
            "NORMAL": 1,
            "TEXCOORD_0": 2
          },
          "mode": 4,
          "material": 0,
          "indices": 3
        }
      ]
    }
  ],
  "nodes": [
    {
      "name": "plastic_monobloc_chair_01",
      "mesh": 0
    }
  ],
  "scenes": [
    {
      "name": "Scene",
      "nodes": [
        0
      ]
    }
  ],
  "scene": 0
}