{
  "asset": {
    "generator": "glTF-Transform v4.5.1",
    "version": "2.0"
  },
  "accessors": [
    {
      "type": "VEC3",
      "componentType": 5126,
      "count": 6313,
      "max": [
        0.4558956027030945,
        0.42499640583992004,
        0.20653319358825684
      ],
      "min": [
        -0.45671579241752625,
        0.00002816971391439438,
        -0.20713478326797485
      ],
      "bufferView": 0,
      "byteOffset": 0
    },
    {
      "type": "VEC2",
      "componentType": 5126,
      "count": 6313,
      "bufferView": 0,
      "byteOffset": 12
    },
    {
      "type": "VEC3",
      "componentType": 5126,
      "count": 6313,
      "bufferView": 0,
      "byteOffset": 20
    },
    {
      "type": "SCALAR",
      "componentType": 5123,
      "count": 24282,
      "bufferView": 1,
      "byteOffset": 0
    }
  ],
  "bufferViews": [
    {
      "buffer": 0,
      "byteOffset": 0,
      "byteLength": 202016,
      "byteStride": 32,
      "target": 34962
    },
    {
      "buffer": 0,
      "byteOffset": 202016,
      "byteLength": 48564,
      "target": 34963
    }
  ],
  "samplers": [
    {
      "magFilter": 9729,
      "minFilter": 9987,
      "wrapS": 10497,
      "wrapT": 10497
    }
  ],
  "textures": [
    {
      "source": 1,
      "sampler": 0
    },
    {
      "source": 0,
      "sampler": 0
    },
    {
      "source": 2,
      "sampler": 0
    }
  ],
  "images": [
    {
      "name": "planter_box_01_nor_gl",
      "mimeType": "image/jpeg",
      "uri": "textures/planter_box_01_nor_gl_1k.jpg"
    },
    {
      "name": "planter_box_01_diff",
      "mimeType": "image/jpeg",
      "uri": "textures/planter_box_01_diff_1k.jpg"
    },
    {
      "name": "planter_box_01_metal-planter_box_01_rough",
      "mimeType": "image/jpeg",
      "uri": "textures/planter_box_01_arm_1k.jpg"
    }
  ],
  "buffers": [
    {
      "uri": "planter_box_01.bin",
      "byteLength": 250580
    }
  ],
  "materials": [
    {
      "name": "planter_box_01",
      "doubleSided": true,
      "pbrMetallicRoughness": {
        "baseColorTexture": {
          "index": 0
        },
        "metallicRoughnessTexture": {
          "index": 2
        }
      },
      "normalTexture": {
        "index": 1
      }
    }
  ],
  "meshes": [
    {
      "name": "Plane.003",
      "primitives": [
        {
          "attributes": {
            "POSITION": 0,
            "TEXCOORD_0": 1,
            "NORMAL": 2
          },
          "mode": 4,
          "material": 0,
          "indices": 3
        }
      ]
    }
  ],
  "nodes": [
    {
      "name": "planter_box_01",
      "mesh": 0
    }
  ],
  "scenes": [
    {
      "name": "Scene",
      "nodes": [
        0
      ]
    }
  ],
  "scene": 0
}