{
  "asset": {
    "generator": "glTF-Transform v4.5.1",
    "version": "2.0"
  },
  "accessors": [
    {
      "type": "VEC3",
      "componentType": 5126,
      "count": 31514,
      "max": [
        0.7707335948944092,
        0.8226187229156494,
        0.3439931571483612
      ],
      "min": [
        -0.774623453617096,
        -0.008429879322648048,
        -0.2947474718093872
      ],
      "bufferView": 0,
      "byteOffset": 0
    },
    {
      "type": "VEC3",
      "componentType": 5126,
      "count": 31514,
      "bufferView": 0,
      "byteOffset": 12
    },
    {
      "type": "VEC2",
      "componentType": 5126,
      "count": 31514,
      "bufferView": 0,
      "byteOffset": 24
    },
    {
      "type": "SCALAR",
      "componentType": 5123,
      "count": 182784,
      "bufferView": 1,
      "byteOffset": 0
    }
  ],
  "bufferViews": [
    {
      "buffer": 0,
      "byteOffset": 0,
      "byteLength": 1008448,
      "byteStride": 32,
      "target": 34962
    },
    {
      "buffer": 0,
      "byteOffset": 1008448,
      "byteLength": 365568,
      "target": 34963
    }
  ],
  "samplers": [
    {
      "magFilter": 9729,
      "minFilter": 9987,
      "wrapS": 10497,
      "wrapT": 10497
    }
  ],
  "textures": [
    {
      "source": 1,
      "sampler": 0
    },
    {
      "source": 0,
      "sampler": 0
    },
    {
      "source": 2,
      "sampler": 0
    }
  ],
  "images": [
    {
      "name": "concrete_road_barrier_nor_gl",
      "mimeType": "image/jpeg",
      "uri": "textures/concrete_road_barrier_nor_gl_1k.jpg"
    },
    {
      "name": "concrete_road_barrier_diff",
      "mimeType": "image/jpeg",
      "uri": "textures/concrete_road_barrier_diff_1k.jpg"
    },
    {
      "name": "concrete_road_barrier_rough",
      "mimeType": "image/jpeg",
      "uri": "textures/concrete_road_barrier_arm_1k.jpg"
    }
  ],
  "buffers": [
    {
      "uri": "concrete_road_barrier.bin",
      "byteLength": 1374016
    }
  ],
  "materials": [
    {
      "name": "concrete_road_barrier",
      "doubleSided": true,
      "pbrMetallicRoughness": {
        "metallicFactor": 0,
        "baseColorTexture": {
          "index": 0
        },
        "metallicRoughnessTexture": {
          "index": 2
        }
      },
      "normalTexture": {
        "index": 1
      }
    }
  ],
  "meshes": [
    {
      "name": "RetopoFlow.006",
      "primitives": [
        {
          "attributes": {
            "POSITION": 0,
            "NORMAL": 1,
            "TEXCOORD_0": 2
          },
          "mode": 4,
          "material": 0,
          "indices": 3
        }
      ]
    }
  ],
  "nodes": [
    {
      "name": "concrete_road_barrier",
      "mesh": 0
    }
  ],
  "scenes": [
    {
      "name": "Scene",
      "nodes": [
        0
      ]
    }
  ],
  "scene": 0
}