{
  "asset": {
    "generator": "glTF-Transform v4.5.1",
    "version": "2.0"
  },
  "accessors": [
    {
      "type": "VEC3",
      "componentType": 5126,
      "count": 2299,
      "max": [
        0.2256641536951065,
        0.041328903287649155,
        0.12335657328367233
      ],
      "min": [
        -0.2242254614830017,
        0.00007586209540022537,
        -0.12329595535993576
      ],
      "bufferView": 0,
      "byteOffset": 0
    },
    {
      "type": "VEC3",
      "componentType": 5126,
      "count": 2299,
      "bufferView": 0,
      "byteOffset": 12
    },
    {
      "type": "VEC2",
      "componentType": 5126,
      "count": 2299,
      "bufferView": 0,
      "byteOffset": 24
    },
    {
      "type": "SCALAR",
      "componentType": 5123,
      "count": 10560,
      "bufferView": 1,
      "byteOffset": 0
    }
  ],
  "bufferViews": [
    {
      "buffer": 0,
      "byteOffset": 0,
      "byteLength": 73568,
      "byteStride": 32,
      "target": 34962
    },
    {
      "buffer": 0,
      "byteOffset": 73568,
      "byteLength": 21120,
      "target": 34963
    }
  ],
  "samplers": [
    {
      "magFilter": 9729,
      "minFilter": 9987,
      "wrapS": 10497,
      "wrapT": 10497
    }
  ],
  "textures": [
    {
      "source": 1,
      "sampler": 0
    },
    {
      "source": 0,
      "sampler": 0
    },
    {
      "source": 2,
      "sampler": 0
    }
  ],
  "images": [
    {
      "name": "wooden_cutting_board_nor_gl",
      "mimeType": "image/jpeg",
      "uri": "textures/wooden_cutting_board_nor_gl_1k.jpg"
    },
    {
      "name": "wooden_cutting_board_diff",
      "mimeType": "image/jpeg",
      "uri": "textures/wooden_cutting_board_diff_1k.jpg"
    },
    {
      "name": "wooden_cutting_board_rough",
      "mimeType": "image/jpeg",
      "uri": "textures/wooden_cutting_board_arm_1k.jpg"
    }
  ],
  "buffers": [
    {
      "uri": "wooden_cutting_board.bin",
      "byteLength": 94688
    }
  ],
  "materials": [
    {
      "name": "wooden_cutting_board",
      "doubleSided": true,
      "pbrMetallicRoughness": {
        "metallicFactor": 0,
        "baseColorTexture": {
          "index": 0
        },
        "metallicRoughnessTexture": {
          "index": 2
        }
      },
      "normalTexture": {
        "index": 1
      }
    }
  ],
  "meshes": [
    {
      "name": "Cube.002",
      "primitives": [
        {
          "attributes": {
            "POSITION": 0,
            "NORMAL": 1,
            "TEXCOORD_0": 2
          },
          "mode": 4,
          "material": 0,
          "indices": 3
        }
      ]
    }
  ],
  "nodes": [
    {
      "name": "wooden_cutting_board",
      "mesh": 0
    }
  ],
  "scenes": [
    {
      "name": "blend_export",
      "nodes": [
        0
      ]
    }
  ],
  "scene": 0
}