{
  "asset": {
    "generator": "glTF-Transform v4.5.1",
    "version": "2.0"
  },
  "accessors": [
    {
      "type": "VEC3",
      "componentType": 5126,
      "count": 17260,
      "max": [
        0.35216811299324036,
        3.8705554008483887,
        0.19324658811092377
      ],
      "min": [
        -0.35216811299324036,
        0,
        -0.19324657320976257
      ],
      "bufferView": 0,
      "byteOffset": 0
    },
    {
      "type": "VEC3",
      "componentType": 5126,
      "count": 17260,
      "bufferView": 0,
      "byteOffset": 12
    },
    {
      "type": "VEC2",
      "componentType": 5126,
      "count": 17260,
      "bufferView": 0,
      "byteOffset": 24
    },
    {
      "type": "SCALAR",
      "componentType": 5123,
      "count": 90150,
      "bufferView": 1,
      "byteOffset": 0
    },
    {
      "type": "SCALAR",
      "componentType": 5123,
      "count": 1008,
      "bufferView": 1,
      "byteOffset": 180300
    },
    {
      "type": "SCALAR",
      "componentType": 5123,
      "count": 672,
      "bufferView": 1,
      "byteOffset": 182316
    },
    {
      "type": "VEC3",
      "componentType": 5126,
      "count": 256,
      "max": [
        0.17362673580646515,
        3.509547710418701,
        0.1738712638616562
      ],
      "min": [
        -0.17362673580646515,
        3.1376543045043945,
        -0.17394879460334778
      ],
      "bufferView": 2,
      "byteOffset": 0
    },
    {
      "type": "VEC3",
      "componentType": 5126,
      "count": 256,
      "bufferView": 2,
      "byteOffset": 12
    },
    {
      "type": "VEC2",
      "componentType": 5126,
      "count": 256,
      "bufferView": 2,
      "byteOffset": 24
    },
    {
      "type": "VEC3",
      "componentType": 5126,
      "count": 148,
      "max": [
        0.030023464933037758,
        3.301558494567871,
        0.029995419085025787
      ],
      "min": [
        -0.029966535046696663,
        3.2271063327789307,
        -0.02999458834528923
      ],
      "bufferView": 3,
      "byteOffset": 0
    },
    {
      "type": "VEC3",
      "componentType": 5126,
      "count": 148,
      "bufferView": 3,
      "byteOffset": 12
    },
    {
      "type": "VEC2",
      "componentType": 5126,
      "count": 148,
      "bufferView": 3,
      "byteOffset": 24
    }
  ],
  "bufferViews": [
    {
      "buffer": 0,
      "byteOffset": 0,
      "byteLength": 552320,
      "byteStride": 32,
      "target": 34962
    },
    {
      "buffer": 0,
      "byteOffset": 552320,
      "byteLength": 183660,
      "target": 34963
    },
    {
      "buffer": 0,
      "byteOffset": 735980,
      "byteLength": 8192,
      "byteStride": 32,
      "target": 34962
    },
    {
      "buffer": 0,
      "byteOffset": 744172,
      "byteLength": 4736,
      "byteStride": 32,
      "target": 34962
    }
  ],
  "samplers": [
    {
      "magFilter": 9729,
      "minFilter": 9987,
      "wrapS": 10497,
      "wrapT": 10497
    }
  ],
  "textures": [
    {
      "source": 1,
      "sampler": 0
    },
    {
      "source": 0,
      "sampler": 0
    },
    {
      "source": 2,
      "sampler": 0
    },
    {
      "source": 3,
      "sampler": 0
    }
  ],
  "images": [
    {
      "name": "street_lamp_01_nor_gl",
      "mimeType": "image/jpeg",
      "uri": "textures/street_lamp_01_nor_gl_1k.jpg"
    },
    {
      "name": "street_lamp_01_diff",
      "mimeType": "image/jpeg",
      "uri": "textures/street_lamp_01_diff_1k.jpg"
    },
    {
      "name": "street_lamp_01_metal-street_lamp_01_rough",
      "mimeType": "image/jpeg",
      "uri": "textures/street_lamp_01_arm_1k.jpg"
    },
    {
      "name": "street_lamp_01_diff-street_lamp_01_opacity",
      "mimeType": "image/jpeg",
      "uri": "textures/street_lamp_01_diff_1k.jpg"
    }
  ],
  "buffers": [
    {
      "uri": "street_lamp_01.bin",
      "byteLength": 748908
    }
  ],
  "materials": [
    {
      "name": "street_lamp_01",
      "doubleSided": true,
      "pbrMetallicRoughness": {
        "baseColorTexture": {
          "index": 0
        },
        "metallicRoughnessTexture": {
          "index": 2
        }
      },
      "normalTexture": {
        "index": 1
      }
    },
    {
      "name": "street_lamp_01_glass",
      "alphaMode": "BLEND",
      "doubleSided": true,
      "pbrMetallicRoughness": {
        "baseColorTexture": {
          "index": 3
        },
        "metallicRoughnessTexture": {
          "index": 2
        }
      },
      "normalTexture": {
        "index": 1
      }
    },
    {
      "name": "street_lamp_01_bulb",
      "doubleSided": true,
      "pbrMetallicRoughness": {
        "baseColorTexture": {
          "index": 0
        },
        "metallicRoughnessTexture": {
          "index": 2
        }
      },
      "normalTexture": {
        "index": 1
      }
    }
  ],
  "meshes": [
    {
      "name": "street_lamp_01_post_mesh",
      "primitives": [
        {
          "attributes": {
            "POSITION": 0,
            "NORMAL": 1,
            "TEXCOORD_0": 2
          },
          "mode": 4,
          "material": 0,
          "indices": 3
        },
        {
          "attributes": {
            "POSITION": 6,
            "NORMAL": 7,
            "TEXCOORD_0": 8
          },
          "mode": 4,
          "material": 1,
          "indices": 4
        },
        {
          "attributes": {
            "POSITION": 9,
            "NORMAL": 10,
            "TEXCOORD_0": 11
          },
          "mode": 4,
          "material": 2,
          "indices": 5
        }
      ]
    }
  ],
  "nodes": [
    {
      "name": "street_lamp_01",
      "mesh": 0
    }
  ],
  "scenes": [
    {
      "name": "Scene",
      "nodes": [
        0
      ]
    }
  ],
  "scene": 0
}