{
  "asset": {
    "generator": "glTF-Transform v4.5.1",
    "version": "2.0"
  },
  "accessors": [
    {
      "type": "VEC3",
      "componentType": 5126,
      "count": 7993,
      "max": [
        0.375308632850647,
        0.6235355138778687,
        0.2625770568847656
      ],
      "min": [
        -0.22518207132816315,
        0.002179764211177826,
        -0.17349055409431458
      ],
      "bufferView": 0,
      "byteOffset": 0
    },
    {
      "type": "VEC3",
      "componentType": 5126,
      "count": 7993,
      "bufferView": 0,
      "byteOffset": 12
    },
    {
      "type": "VEC2",
      "componentType": 5126,
      "count": 7993,
      "bufferView": 0,
      "byteOffset": 24
    },
    {
      "type": "SCALAR",
      "componentType": 5123,
      "count": 26763,
      "bufferView": 1,
      "byteOffset": 0
    },
    {
      "type": "SCALAR",
      "componentType": 5123,
      "count": 18,
      "bufferView": 1,
      "byteOffset": 53528
    },
    {
      "type": "SCALAR",
      "componentType": 5123,
      "count": 3000,
      "bufferView": 1,
      "byteOffset": 53564
    },
    {
      "type": "VEC3",
      "componentType": 5126,
      "count": 12,
      "max": [
        0.19196026027202606,
        0.6097210049629211,
        -0.02246727980673313
      ],
      "min": [
        -0.15305203199386597,
        0.5646552443504333,
        -0.1453566998243332
      ],
      "bufferView": 2,
      "byteOffset": 0
    },
    {
      "type": "VEC3",
      "componentType": 5126,
      "count": 12,
      "bufferView": 2,
      "byteOffset": 12
    },
    {
      "type": "VEC2",
      "componentType": 5126,
      "count": 12,
      "bufferView": 2,
      "byteOffset": 24
    },
    {
      "type": "VEC3",
      "componentType": 5126,
      "count": 1271,
      "max": [
        0.2278974950313568,
        0.12868578732013702,
        0.2671951651573181
      ],
      "min": [
        -0.19286872446537018,
        0.021781623363494873,
        -0.060094937682151794
      ],
      "bufferView": 3,
      "byteOffset": 0
    },
    {
      "type": "VEC3",
      "componentType": 5126,
      "count": 1271,
      "bufferView": 3,
      "byteOffset": 12
    },
    {
      "type": "VEC2",
      "componentType": 5126,
      "count": 1271,
      "bufferView": 3,
      "byteOffset": 24
    }
  ],
  "bufferViews": [
    {
      "buffer": 0,
      "byteOffset": 0,
      "byteLength": 255776,
      "byteStride": 32,
      "target": 34962
    },
    {
      "buffer": 0,
      "byteOffset": 255776,
      "byteLength": 59564,
      "target": 34963
    },
    {
      "buffer": 0,
      "byteOffset": 315340,
      "byteLength": 384,
      "byteStride": 32,
      "target": 34962
    },
    {
      "buffer": 0,
      "byteOffset": 315724,
      "byteLength": 40672,
      "byteStride": 32,
      "target": 34962
    }
  ],
  "samplers": [
    {
      "magFilter": 9729,
      "minFilter": 9987,
      "wrapS": 10497,
      "wrapT": 10497
    }
  ],
  "textures": [
    {
      "source": 1,
      "sampler": 0
    },
    {
      "source": 0,
      "sampler": 0
    },
    {
      "source": 2,
      "sampler": 0
    },
    {
      "source": 4,
      "sampler": 0
    },
    {
      "source": 3,
      "sampler": 0
    },
    {
      "source": 5,
      "sampler": 0
    }
  ],
  "images": [
    {
      "name": "CashRegister_01_nor_gl",
      "mimeType": "image/jpeg",
      "uri": "textures/CashRegister_01_nor_gl_1k.jpg"
    },
    {
      "name": "CashRegister_01_diff",
      "mimeType": "image/jpeg",
      "uri": "textures/CashRegister_01_diff_1k.jpg"
    },
    {
      "name": "CashRegister_01_metallic-CashRegister_01_roughness",
      "mimeType": "image/jpeg",
      "uri": "textures/CashRegister_01_arm_1k.jpg"
    },
    {
      "name": "CashRegister_01_glass_nor_gl",
      "mimeType": "image/jpeg",
      "uri": "textures/CashRegister_01_glass_nor_gl_1k.jpg"
    },
    {
      "name": "CashRegister_01_glass_diff-CashRegister_01_glass_opacity",
      "mimeType": "image/jpeg",
      "uri": "textures/CashRegister_01_glass_diff_1k.jpg"
    },
    {
      "name": "CashRegister_01_glass_metallic-CashRegister_01_glass_roughness",
      "mimeType": "image/jpeg",
      "uri": "textures/CashRegister_01_glass_arm_1k.jpg"
    }
  ],
  "buffers": [
    {
      "uri": "CashRegister_01.bin",
      "byteLength": 356396
    }
  ],
  "materials": [
    {
      "name": "CashRegister_01",
      "doubleSided": true,
      "pbrMetallicRoughness": {
        "baseColorTexture": {
          "index": 0
        },
        "metallicRoughnessTexture": {
          "index": 2
        }
      },
      "normalTexture": {
        "index": 1
      }
    },
    {
      "name": "CashRegister_01_glass",
      "alphaMode": "BLEND",
      "doubleSided": true,
      "pbrMetallicRoughness": {
        "baseColorTexture": {
          "index": 3
        },
        "metallicRoughnessTexture": {
          "index": 5
        }
      },
      "normalTexture": {
        "index": 4
      }
    }
  ],
  "meshes": [
    {
      "name": "Cash_register",
      "primitives": [
        {
          "attributes": {
            "POSITION": 0,
            "NORMAL": 1,
            "TEXCOORD_0": 2
          },
          "mode": 4,
          "material": 0,
          "indices": 3
        },
        {
          "attributes": {
            "POSITION": 6,
            "NORMAL": 7,
            "TEXCOORD_0": 8
          },
          "mode": 4,
          "material": 1,
          "indices": 4
        }
      ]
    },
    {
      "name": "Cash_register.001",
      "primitives": [
        {
          "attributes": {
            "POSITION": 9,
            "NORMAL": 10,
            "TEXCOORD_0": 11
          },
          "mode": 4,
          "material": 0,
          "indices": 5
        }
      ]
    }
  ],
  "nodes": [
    {
      "name": "CashRegister_01_body",
      "mesh": 0
    },
    {
      "name": "CashRegister_011_drawer",
      "translation": [
        0,
        0,
        0.1835193932056427
      ],
      "mesh": 1
    }
  ],
  "scenes": [
    {
      "name": "Scene",
      "nodes": [
        0,
        1
      ]
    }
  ],
  "scene": 0
}