{
  "asset": {
    "generator": "glTF-Transform v4.5.1",
    "version": "2.0"
  },
  "accessors": [
    {
      "type": "VEC3",
      "componentType": 5126,
      "count": 12348,
      "max": [
        0.19324655830860138,
        1.2801183462142944,
        0.8067892789840698
      ],
      "min": [
        -0.19324660301208496,
        -0.394923597574234,
        -2.31228973746056e-8
      ],
      "bufferView": 0,
      "byteOffset": 0
    },
    {
      "type": "VEC3",
      "componentType": 5126,
      "count": 12348,
      "bufferView": 0,
      "byteOffset": 12
    },
    {
      "type": "VEC2",
      "componentType": 5126,
      "count": 12348,
      "bufferView": 0,
      "byteOffset": 24
    },
    {
      "type": "SCALAR",
      "componentType": 5123,
      "count": 59334,
      "bufferView": 1,
      "byteOffset": 0
    },
    {
      "type": "SCALAR",
      "componentType": 5123,
      "count": 1008,
      "bufferView": 1,
      "byteOffset": 118668
    },
    {
      "type": "SCALAR",
      "componentType": 5123,
      "count": 672,
      "bufferView": 1,
      "byteOffset": 120684
    },
    {
      "type": "VEC3",
      "componentType": 5126,
      "count": 256,
      "max": [
        0.17394877970218658,
        0.9191105365753174,
        0.7871694564819336
      ],
      "min": [
        -0.17387129366397858,
        0.5472171306610107,
        0.4399160146713257
      ],
      "bufferView": 2,
      "byteOffset": 0
    },
    {
      "type": "VEC3",
      "componentType": 5126,
      "count": 256,
      "bufferView": 2,
      "byteOffset": 12
    },
    {
      "type": "VEC2",
      "componentType": 5126,
      "count": 256,
      "bufferView": 2,
      "byteOffset": 24
    },
    {
      "type": "VEC3",
      "componentType": 5126,
      "count": 148,
      "max": [
        0.02999456226825714,
        0.7111213207244873,
        0.6435661911964417
      ],
      "min": [
        -0.029995445162057877,
        0.6366691589355469,
        0.5835762023925781
      ],
      "bufferView": 3,
      "byteOffset": 0
    },
    {
      "type": "VEC3",
      "componentType": 5126,
      "count": 148,
      "bufferView": 3,
      "byteOffset": 12
    },
    {
      "type": "VEC2",
      "componentType": 5126,
      "count": 148,
      "bufferView": 3,
      "byteOffset": 24
    }
  ],
  "bufferViews": [
    {
      "buffer": 0,
      "byteOffset": 0,
      "byteLength": 395136,
      "byteStride": 32,
      "target": 34962
    },
    {
      "buffer": 0,
      "byteOffset": 395136,
      "byteLength": 122028,
      "target": 34963
    },
    {
      "buffer": 0,
      "byteOffset": 517164,
      "byteLength": 8192,
      "byteStride": 32,
      "target": 34962
    },
    {
      "buffer": 0,
      "byteOffset": 525356,
      "byteLength": 4736,
      "byteStride": 32,
      "target": 34962
    }
  ],
  "samplers": [
    {
      "magFilter": 9729,
      "minFilter": 9987,
      "wrapS": 10497,
      "wrapT": 10497
    }
  ],
  "textures": [
    {
      "source": 1,
      "sampler": 0
    },
    {
      "source": 0,
      "sampler": 0
    },
    {
      "source": 2,
      "sampler": 0
    },
    {
      "source": 3,
      "sampler": 0
    }
  ],
  "images": [
    {
      "name": "street_lamp_02_nor_gl",
      "mimeType": "image/jpeg",
      "uri": "textures/street_lamp_02_nor_gl_1k.jpg"
    },
    {
      "name": "street_lamp_02_diff",
      "mimeType": "image/jpeg",
      "uri": "textures/street_lamp_02_diff_1k.jpg"
    },
    {
      "name": "street_lamp_02_metal-street_lamp_02_rough",
      "mimeType": "image/jpeg",
      "uri": "textures/street_lamp_02_arm_1k.jpg"
    },
    {
      "name": "street_lamp_02_diff-street_lamp_02_opacity",
      "mimeType": "image/jpeg",
      "uri": "textures/street_lamp_02_diff_1k.jpg"
    }
  ],
  "buffers": [
    {
      "uri": "street_lamp_02.bin",
      "byteLength": 530092
    }
  ],
  "materials": [
    {
      "name": "street_lamp_02",
      "doubleSided": true,
      "pbrMetallicRoughness": {
        "baseColorTexture": {
          "index": 0
        },
        "metallicRoughnessTexture": {
          "index": 2
        }
      },
      "normalTexture": {
        "index": 1
      }
    },
    {
      "name": "street_lamp_02_glass",
      "alphaMode": "BLEND",
      "doubleSided": true,
      "pbrMetallicRoughness": {
        "baseColorTexture": {
          "index": 3
        },
        "metallicRoughnessTexture": {
          "index": 2
        }
      },
      "normalTexture": {
        "index": 1
      }
    },
    {
      "name": "street_lamp_02_bulb",
      "doubleSided": true,
      "pbrMetallicRoughness": {
        "baseColorTexture": {
          "index": 0
        },
        "metallicRoughnessTexture": {
          "index": 2
        }
      },
      "normalTexture": {
        "index": 1
      }
    }
  ],
  "meshes": [
    {
      "name": "street_lamp_02_stem_mesh",
      "primitives": [
        {
          "attributes": {
            "POSITION": 0,
            "NORMAL": 1,
            "TEXCOORD_0": 2
          },
          "mode": 4,
          "material": 0,
          "indices": 3
        },
        {
          "attributes": {
            "POSITION": 6,
            "NORMAL": 7,
            "TEXCOORD_0": 8
          },
          "mode": 4,
          "material": 1,
          "indices": 4
        },
        {
          "attributes": {
            "POSITION": 9,
            "NORMAL": 10,
            "TEXCOORD_0": 11
          },
          "mode": 4,
          "material": 2,
          "indices": 5
        }
      ]
    }
  ],
  "nodes": [
    {
      "name": "street_lamp_02",
      "mesh": 0
    }
  ],
  "scenes": [
    {
      "name": "Scene",
      "nodes": [
        0
      ]
    }
  ],
  "scene": 0
}