{
  "asset": {
    "generator": "glTF-Transform v4.5.1",
    "version": "2.0"
  },
  "accessors": [
    {
      "type": "VEC3",
      "componentType": 5126,
      "count": 2668,
      "max": [
        0.47335898876190186,
        1.5090322494506836,
        0.3793523609638214
      ],
      "min": [
        -0.4461677670478821,
        -1.5056824054227036e-7,
        -0.37935230135917664
      ],
      "bufferView": 0,
      "byteOffset": 0
    },
    {
      "type": "VEC2",
      "componentType": 5126,
      "count": 2668,
      "bufferView": 0,
      "byteOffset": 12
    },
    {
      "type": "VEC3",
      "componentType": 5126,
      "count": 2668,
      "bufferView": 0,
      "byteOffset": 20
    },
    {
      "type": "SCALAR",
      "componentType": 5123,
      "count": 7092,
      "bufferView": 1,
      "byteOffset": 0
    },
    {
      "type": "SCALAR",
      "componentType": 5123,
      "count": 24,
      "bufferView": 1,
      "byteOffset": 14184
    },
    {
      "type": "VEC3",
      "componentType": 5126,
      "count": 16,
      "max": [
        0.39819028973579407,
        1.4356701374053955,
        0.2981609106063843
      ],
      "min": [
        -0.3709985911846161,
        0.3187817633152008,
        -0.2981610894203186
      ],
      "bufferView": 2,
      "byteOffset": 0
    },
    {
      "type": "VEC2",
      "componentType": 5126,
      "count": 16,
      "bufferView": 2,
      "byteOffset": 12
    },
    {
      "type": "VEC3",
      "componentType": 5126,
      "count": 16,
      "bufferView": 2,
      "byteOffset": 20
    }
  ],
  "bufferViews": [
    {
      "buffer": 0,
      "byteOffset": 0,
      "byteLength": 85376,
      "byteStride": 32,
      "target": 34962
    },
    {
      "buffer": 0,
      "byteOffset": 85376,
      "byteLength": 14232,
      "target": 34963
    },
    {
      "buffer": 0,
      "byteOffset": 99608,
      "byteLength": 512,
      "byteStride": 32,
      "target": 34962
    }
  ],
  "samplers": [
    {
      "magFilter": 9729,
      "minFilter": 9987,
      "wrapS": 10497,
      "wrapT": 10497
    }
  ],
  "textures": [
    {
      "source": 1,
      "sampler": 0
    },
    {
      "source": 0,
      "sampler": 0
    },
    {
      "source": 2,
      "sampler": 0
    },
    {
      "source": 4,
      "sampler": 0
    },
    {
      "source": 3,
      "sampler": 0
    },
    {
      "source": 5,
      "sampler": 0
    }
  ],
  "images": [
    {
      "name": "standing_chalkboard_01_frame_nor_gl",
      "mimeType": "image/jpeg",
      "uri": "textures/standing_chalkboard_01_frame_nor_gl_1k.jpg"
    },
    {
      "name": "standing_chalkboard_01_frame_diff",
      "mimeType": "image/jpeg",
      "uri": "textures/standing_chalkboard_01_frame_diff_1k.jpg"
    },
    {
      "name": "standing_chalkboard_01_frame_metal-standing_chalkboard_01_frame_rough",
      "mimeType": "image/jpeg",
      "uri": "textures/standing_chalkboard_01_frame_arm_1k.jpg"
    },
    {
      "name": "standing_chalkboard_01_board_nor_gl",
      "mimeType": "image/jpeg",
      "uri": "textures/standing_chalkboard_01_board_nor_gl_1k.jpg"
    },
    {
      "name": "standing_chalkboard_01_board_diff",
      "mimeType": "image/jpeg",
      "uri": "textures/standing_chalkboard_01_board_diff_1k.jpg"
    },
    {
      "name": "standing_chalkboard_01_board_metal-standing_chalkboard_01_board_rough",
      "mimeType": "image/jpeg",
      "uri": "textures/standing_chalkboard_01_board_arm_1k.jpg"
    }
  ],
  "buffers": [
    {
      "uri": "standing_chalkboard_01.bin",
      "byteLength": 100120
    }
  ],
  "materials": [
    {
      "name": "standing_chalkboard_01_frame",
      "doubleSided": true,
      "pbrMetallicRoughness": {
        "baseColorTexture": {
          "index": 0
        },
        "metallicRoughnessTexture": {
          "index": 2
        }
      },
      "normalTexture": {
        "index": 1
      }
    },
    {
      "name": "standing_chalkboard_01_board",
      "doubleSided": true,
      "pbrMetallicRoughness": {
        "baseColorTexture": {
          "index": 3
        },
        "metallicRoughnessTexture": {
          "index": 5
        }
      },
      "normalTexture": {
        "index": 4
      }
    }
  ],
  "meshes": [
    {
      "name": "Cube.012",
      "primitives": [
        {
          "attributes": {
            "POSITION": 0,
            "TEXCOORD_0": 1,
            "NORMAL": 2
          },
          "mode": 4,
          "material": 0,
          "indices": 3
        },
        {
          "attributes": {
            "POSITION": 5,
            "TEXCOORD_0": 6,
            "NORMAL": 7
          },
          "mode": 4,
          "material": 1,
          "indices": 4
        }
      ]
    }
  ],
  "nodes": [
    {
      "name": "standing_chalkboard_01",
      "mesh": 0
    }
  ],
  "scenes": [
    {
      "name": "Scene",
      "nodes": [
        0
      ]
    }
  ],
  "scene": 0
}