{
  "asset": {
    "generator": "glTF-Transform v4.5.1",
    "version": "2.0"
  },
  "accessors": [
    {
      "type": "VEC3",
      "componentType": 5126,
      "count": 2038,
      "max": [
        0.05522224307060242,
        0.06327313929796219,
        0.0647527277469635
      ],
      "min": [
        -0.04894179850816727,
        -0.00004612950579030439,
        -0.04904375970363617
      ],
      "bufferView": 0,
      "byteOffset": 0
    },
    {
      "type": "VEC3",
      "componentType": 5126,
      "count": 2038,
      "bufferView": 0,
      "byteOffset": 12
    },
    {
      "type": "VEC2",
      "componentType": 5126,
      "count": 2038,
      "bufferView": 0,
      "byteOffset": 24
    },
    {
      "type": "SCALAR",
      "componentType": 5123,
      "count": 11664,
      "bufferView": 1,
      "byteOffset": 0
    },
    {
      "type": "SCALAR",
      "componentType": 5123,
      "count": 11850,
      "bufferView": 1,
      "byteOffset": 23328
    },
    {
      "type": "SCALAR",
      "componentType": 5123,
      "count": 11250,
      "bufferView": 1,
      "byteOffset": 47028
    },
    {
      "type": "VEC3",
      "componentType": 5126,
      "count": 2033,
      "max": [
        0.05439377203583717,
        0.05778049677610397,
        0.0569869801402092
      ],
      "min": [
        -0.05642892047762871,
        -0.000003865882717946079,
        -0.04893888905644417
      ],
      "bufferView": 2,
      "byteOffset": 0
    },
    {
      "type": "VEC3",
      "componentType": 5126,
      "count": 2033,
      "bufferView": 2,
      "byteOffset": 12
    },
    {
      "type": "VEC2",
      "componentType": 5126,
      "count": 2033,
      "bufferView": 2,
      "byteOffset": 24
    },
    {
      "type": "VEC3",
      "componentType": 5126,
      "count": 1967,
      "max": [
        0.048282235860824585,
        0.057136744260787964,
        0.05263875797390938
      ],
      "min": [
        -0.05916422978043556,
        -0.00011559481936274096,
        -0.045540936291217804
      ],
      "bufferView": 3,
      "byteOffset": 0
    },
    {
      "type": "VEC3",
      "componentType": 5126,
      "count": 1967,
      "bufferView": 3,
      "byteOffset": 12
    },
    {
      "type": "VEC2",
      "componentType": 5126,
      "count": 1967,
      "bufferView": 3,
      "byteOffset": 24
    }
  ],
  "bufferViews": [
    {
      "buffer": 0,
      "byteOffset": 0,
      "byteLength": 65216,
      "byteStride": 32,
      "target": 34962
    },
    {
      "buffer": 0,
      "byteOffset": 65216,
      "byteLength": 69528,
      "target": 34963
    },
    {
      "buffer": 0,
      "byteOffset": 134744,
      "byteLength": 65056,
      "byteStride": 32,
      "target": 34962
    },
    {
      "buffer": 0,
      "byteOffset": 199800,
      "byteLength": 62944,
      "byteStride": 32,
      "target": 34962
    }
  ],
  "samplers": [
    {
      "magFilter": 9729,
      "minFilter": 9987,
      "wrapS": 10497,
      "wrapT": 10497
    }
  ],
  "textures": [
    {
      "source": 1,
      "sampler": 0
    },
    {
      "source": 0,
      "sampler": 0
    },
    {
      "source": 2,
      "sampler": 0
    }
  ],
  "images": [
    {
      "name": "hamburger_buns_nor_gl",
      "mimeType": "image/jpeg",
      "uri": "textures/hamburger_buns_nor_gl_1k.jpg"
    },
    {
      "name": "hamburger_buns_diff",
      "mimeType": "image/jpeg",
      "uri": "textures/hamburger_buns_diff_1k.jpg"
    },
    {
      "name": "hamburger_buns_rough",
      "mimeType": "image/jpeg",
      "uri": "textures/hamburger_buns_arm_1k.jpg"
    }
  ],
  "buffers": [
    {
      "uri": "hamburger_buns.bin",
      "byteLength": 262744
    }
  ],
  "materials": [
    {
      "name": "hamburger_buns",
      "doubleSided": true,
      "pbrMetallicRoughness": {
        "metallicFactor": 0,
        "baseColorTexture": {
          "index": 0
        },
        "metallicRoughnessTexture": {
          "index": 2
        }
      },
      "normalTexture": {
        "index": 1
      }
    }
  ],
  "meshes": [
    {
      "name": "mesh.024",
      "primitives": [
        {
          "attributes": {
            "POSITION": 0,
            "NORMAL": 1,
            "TEXCOORD_0": 2
          },
          "mode": 4,
          "material": 0,
          "indices": 3
        }
      ]
    },
    {
      "name": "mesh.023",
      "primitives": [
        {
          "attributes": {
            "POSITION": 6,
            "NORMAL": 7,
            "TEXCOORD_0": 8
          },
          "mode": 4,
          "material": 0,
          "indices": 4
        }
      ]
    },
    {
      "name": "mesh.022",
      "primitives": [
        {
          "attributes": {
            "POSITION": 9,
            "NORMAL": 10,
            "TEXCOORD_0": 11
          },
          "mode": 4,
          "material": 0,
          "indices": 5
        }
      ]
    }
  ],
  "nodes": [
    {
      "name": "hamburger_buns_01",
      "translation": [
        -0.15000000596046448,
        0,
        0
      ],
      "mesh": 0
    },
    {
      "name": "hamburger_buns_02",
      "mesh": 1
    },
    {
      "name": "hamburger_buns_03",
      "translation": [
        0.15000000596046448,
        0,
        0
      ],
      "mesh": 2
    }
  ],
  "scenes": [
    {
      "name": "Scene",
      "nodes": [
        0,
        1,
        2
      ]
    }
  ],
  "scene": 0
}