{
  "asset": {
    "generator": "glTF-Transform v4.5.1",
    "version": "2.0"
  },
  "accessors": [
    {
      "type": "VEC3",
      "componentType": 5126,
      "count": 5198,
      "max": [
        0.17599543929100037,
        0.882793128490448,
        0.17723581194877625
      ],
      "min": [
        -0.17599546909332275,
        0.000018831517081707716,
        -0.17733439803123474
      ],
      "bufferView": 0,
      "byteOffset": 0
    },
    {
      "type": "VEC3",
      "componentType": 5126,
      "count": 5198,
      "bufferView": 0,
      "byteOffset": 12
    },
    {
      "type": "VEC2",
      "componentType": 5126,
      "count": 5198,
      "bufferView": 0,
      "byteOffset": 24
    },
    {
      "type": "SCALAR",
      "componentType": 5123,
      "count": 25002,
      "bufferView": 1,
      "byteOffset": 0
    }
  ],
  "bufferViews": [
    {
      "buffer": 0,
      "byteOffset": 0,
      "byteLength": 166336,
      "byteStride": 32,
      "target": 34962
    },
    {
      "buffer": 0,
      "byteOffset": 166336,
      "byteLength": 50004,
      "target": 34963
    }
  ],
  "samplers": [
    {
      "magFilter": 9729,
      "minFilter": 9987,
      "wrapS": 10497,
      "wrapT": 10497
    }
  ],
  "textures": [
    {
      "source": 1,
      "sampler": 0
    },
    {
      "source": 0,
      "sampler": 0
    },
    {
      "source": 2,
      "sampler": 0
    }
  ],
  "images": [
    {
      "name": "metal_stool_01_nor_gl",
      "mimeType": "image/jpeg",
      "uri": "textures/metal_stool_01_nor_gl_1k.jpg"
    },
    {
      "name": "metal_stool_01_diff",
      "mimeType": "image/jpeg",
      "uri": "textures/metal_stool_01_diff_1k.jpg"
    },
    {
      "name": "metal_stool_01_metal-metal_stool_01_rough",
      "mimeType": "image/jpeg",
      "uri": "textures/metal_stool_01_arm_1k.jpg"
    }
  ],
  "buffers": [
    {
      "uri": "metal_stool_01.bin",
      "byteLength": 216340
    }
  ],
  "materials": [
    {
      "name": "metal_stool_01",
      "doubleSided": true,
      "pbrMetallicRoughness": {
        "baseColorTexture": {
          "index": 0
        },
        "metallicRoughnessTexture": {
          "index": 2
        }
      },
      "normalTexture": {
        "index": 1
      }
    }
  ],
  "meshes": [
    {
      "name": "Cylinder.010",
      "primitives": [
        {
          "attributes": {
            "POSITION": 0,
            "NORMAL": 1,
            "TEXCOORD_0": 2
          },
          "mode": 4,
          "material": 0,
          "indices": 3
        }
      ]
    }
  ],
  "nodes": [
    {
      "name": "metal_stool_01",
      "mesh": 0
    }
  ],
  "scenes": [
    {
      "name": "Scene",
      "nodes": [
        0
      ]
    }
  ],
  "scene": 0
}