{
  "asset": {
    "generator": "glTF-Transform v4.5.1",
    "version": "2.0"
  },
  "accessors": [
    {
      "type": "VEC3",
      "componentType": 5126,
      "count": 243,
      "max": [
        0.008622199296951294,
        0.007861060090363026,
        0.09275384247303009
      ],
      "min": [
        -0.06748970597982407,
        -0.07104594260454178,
        -0.09275379776954651
      ],
      "bufferView": 0,
      "byteOffset": 0
    },
    {
      "type": "VEC3",
      "componentType": 5126,
      "count": 243,
      "bufferView": 0,
      "byteOffset": 12
    },
    {
      "type": "VEC2",
      "componentType": 5126,
      "count": 243,
      "bufferView": 0,
      "byteOffset": 24
    },
    {
      "type": "SCALAR",
      "componentType": 5123,
      "count": 1248,
      "bufferView": 1,
      "byteOffset": 0
    },
    {
      "type": "SCALAR",
      "componentType": 5123,
      "count": 4644,
      "bufferView": 1,
      "byteOffset": 2496
    },
    {
      "type": "SCALAR",
      "componentType": 5123,
      "count": 12144,
      "bufferView": 1,
      "byteOffset": 11784
    },
    {
      "type": "SCALAR",
      "componentType": 5123,
      "count": 14784,
      "bufferView": 1,
      "byteOffset": 36072
    },
    {
      "type": "SCALAR",
      "componentType": 5123,
      "count": 1344,
      "bufferView": 1,
      "byteOffset": 65640
    },
    {
      "type": "SCALAR",
      "componentType": 5123,
      "count": 1344,
      "bufferView": 1,
      "byteOffset": 68328
    },
    {
      "type": "SCALAR",
      "componentType": 5123,
      "count": 5124,
      "bufferView": 1,
      "byteOffset": 71016
    },
    {
      "type": "VEC3",
      "componentType": 5126,
      "count": 989,
      "max": [
        0.278107225894928,
        0.07810896635055542,
        0.278152197599411
      ],
      "min": [
        -0.2781825065612793,
        -0.03683269023895264,
        -0.27813759446144104
      ],
      "bufferView": 2,
      "byteOffset": 0
    },
    {
      "type": "VEC3",
      "componentType": 5126,
      "count": 989,
      "bufferView": 2,
      "byteOffset": 12
    },
    {
      "type": "VEC2",
      "componentType": 5126,
      "count": 989,
      "bufferView": 2,
      "byteOffset": 24
    },
    {
      "type": "VEC3",
      "componentType": 5126,
      "count": 2883,
      "max": [
        0.30671587586402893,
        0.9062314629554749,
        0.2762044072151184
      ],
      "min": [
        -0.30671584606170654,
        0.00007153064507292584,
        -0.2761646807193756
      ],
      "bufferView": 3,
      "byteOffset": 0
    },
    {
      "type": "VEC3",
      "componentType": 5126,
      "count": 2883,
      "bufferView": 3,
      "byteOffset": 12
    },
    {
      "type": "VEC2",
      "componentType": 5126,
      "count": 2883,
      "bufferView": 3,
      "byteOffset": 24
    },
    {
      "type": "VEC3",
      "componentType": 5126,
      "count": 243,
      "max": [
        0.013925299048423767,
        0.01065035443753004,
        0.09275379776954651
      ],
      "min": [
        -0.08598337322473526,
        -0.05292487516999245,
        -0.09275384247303009
      ],
      "bufferView": 4,
      "byteOffset": 0
    },
    {
      "type": "VEC3",
      "componentType": 5126,
      "count": 243,
      "bufferView": 4,
      "byteOffset": 12
    },
    {
      "type": "VEC2",
      "componentType": 5126,
      "count": 243,
      "bufferView": 4,
      "byteOffset": 24
    },
    {
      "type": "VEC3",
      "componentType": 5126,
      "count": 3335,
      "max": [
        0.3066430985927582,
        0.9062191247940063,
        0.27431339025497437
      ],
      "min": [
        -0.30478355288505554,
        0.00006173570000100881,
        -0.27429285645484924
      ],
      "bufferView": 5,
      "byteOffset": 0
    },
    {
      "type": "VEC3",
      "componentType": 5126,
      "count": 3335,
      "bufferView": 5,
      "byteOffset": 12
    },
    {
      "type": "VEC2",
      "componentType": 5126,
      "count": 3335,
      "bufferView": 5,
      "byteOffset": 24
    },
    {
      "type": "VEC3",
      "componentType": 5126,
      "count": 261,
      "max": [
        0.008622199296951294,
        0.007861060090363026,
        0.09275384247303009
      ],
      "min": [
        -0.07773468643426895,
        -0.07235946506261826,
        -0.09275379776954651
      ],
      "bufferView": 6,
      "byteOffset": 0
    },
    {
      "type": "VEC3",
      "componentType": 5126,
      "count": 261,
      "bufferView": 6,
      "byteOffset": 12
    },
    {
      "type": "VEC2",
      "componentType": 5126,
      "count": 261,
      "bufferView": 6,
      "byteOffset": 24
    },
    {
      "type": "VEC3",
      "componentType": 5126,
      "count": 261,
      "max": [
        0.06592278182506561,
        0.007861060090363026,
        0.09275384247303009
      ],
      "min": [
        -0.009286846034228802,
        -0.06989267468452454,
        -0.09275379776954651
      ],
      "bufferView": 7,
      "byteOffset": 0
    },
    {
      "type": "VEC3",
      "componentType": 5126,
      "count": 261,
      "bufferView": 7,
      "byteOffset": 12
    },
    {
      "type": "VEC2",
      "componentType": 5126,
      "count": 261,
      "bufferView": 7,
      "byteOffset": 24
    },
    {
      "type": "VEC3",
      "componentType": 5126,
      "count": 1067,
      "max": [
        0.2781030833721161,
        0.07810896635055542,
        0.2747277319431305
      ],
      "min": [
        -0.2781825065612793,
        -0.03810993954539299,
        -0.26922404766082764
      ],
      "bufferView": 8,
      "byteOffset": 0
    },
    {
      "type": "VEC3",
      "componentType": 5126,
      "count": 1067,
      "bufferView": 8,
      "byteOffset": 12
    },
    {
      "type": "VEC2",
      "componentType": 5126,
      "count": 1067,
      "bufferView": 8,
      "byteOffset": 24
    }
  ],
  "bufferViews": [
    {
      "buffer": 0,
      "byteOffset": 0,
      "byteLength": 7776,
      "byteStride": 32,
      "target": 34962
    },
    {
      "buffer": 0,
      "byteOffset": 7776,
      "byteLength": 81264,
      "target": 34963
    },
    {
      "buffer": 0,
      "byteOffset": 89040,
      "byteLength": 31648,
      "byteStride": 32,
      "target": 34962
    },
    {
      "buffer": 0,
      "byteOffset": 120688,
      "byteLength": 92256,
      "byteStride": 32,
      "target": 34962
    },
    {
      "buffer": 0,
      "byteOffset": 212944,
      "byteLength": 7776,
      "byteStride": 32,
      "target": 34962
    },
    {
      "buffer": 0,
      "byteOffset": 220720,
      "byteLength": 106720,
      "byteStride": 32,
      "target": 34962
    },
    {
      "buffer": 0,
      "byteOffset": 327440,
      "byteLength": 8352,
      "byteStride": 32,
      "target": 34962
    },
    {
      "buffer": 0,
      "byteOffset": 335792,
      "byteLength": 8352,
      "byteStride": 32,
      "target": 34962
    },
    {
      "buffer": 0,
      "byteOffset": 344144,
      "byteLength": 34144,
      "byteStride": 32,
      "target": 34962
    }
  ],
  "samplers": [
    {
      "magFilter": 9729,
      "minFilter": 9987,
      "wrapS": 10497,
      "wrapT": 10497
    }
  ],
  "textures": [
    {
      "source": 1,
      "sampler": 0
    },
    {
      "source": 0,
      "sampler": 0
    },
    {
      "source": 2,
      "sampler": 0
    },
    {
      "source": 4,
      "sampler": 0
    },
    {
      "source": 3,
      "sampler": 0
    },
    {
      "source": 5,
      "sampler": 0
    }
  ],
  "images": [
    {
      "name": "metal_trash_can_nor_gl",
      "mimeType": "image/jpeg",
      "uri": "textures/metal_trash_can_nor_gl_1k.jpg"
    },
    {
      "name": "metal_trash_can_diff",
      "mimeType": "image/jpeg",
      "uri": "textures/metal_trash_can_diff_1k.jpg"
    },
    {
      "name": "metal_trash_can_metal-metal_trash_can_rough",
      "mimeType": "image/jpeg",
      "uri": "textures/metal_trash_can_arm_1k.jpg"
    },
    {
      "name": "metal_trash_can_rust_nor_gl",
      "mimeType": "image/jpeg",
      "uri": "textures/metal_trash_can_rust_nor_gl_1k.jpg"
    },
    {
      "name": "metal_trash_can_rust_diff",
      "mimeType": "image/jpeg",
      "uri": "textures/metal_trash_can_rust_diff_1k.jpg"
    },
    {
      "name": "metal_trash_can_rust_metal-metal_trash_can_rust_rough",
      "mimeType": "image/jpeg",
      "uri": "textures/metal_trash_can_rust_arm_1k.jpg"
    }
  ],
  "buffers": [
    {
      "uri": "metal_trash_can.bin",
      "byteLength": 378288
    }
  ],
  "materials": [
    {
      "name": "metal_trash_can",
      "doubleSided": true,
      "pbrMetallicRoughness": {
        "baseColorTexture": {
          "index": 0
        },
        "metallicRoughnessTexture": {
          "index": 2
        }
      },
      "normalTexture": {
        "index": 1
      }
    },
    {
      "name": "metal_trash_can_rust",
      "doubleSided": true,
      "pbrMetallicRoughness": {
        "baseColorTexture": {
          "index": 3
        },
        "metallicRoughnessTexture": {
          "index": 5
        }
      },
      "normalTexture": {
        "index": 4
      }
    },
    {
      "name": "metal_trash_can_rust",
      "doubleSided": true,
      "pbrMetallicRoughness": {
        "baseColorTexture": {
          "index": 3
        },
        "metallicRoughnessTexture": {
          "index": 5
        }
      },
      "normalTexture": {
        "index": 4
      }
    }
  ],
  "meshes": [
    {
      "name": "Cylinder.003",
      "primitives": [
        {
          "attributes": {
            "POSITION": 0,
            "NORMAL": 1,
            "TEXCOORD_0": 2
          },
          "mode": 4,
          "material": 0,
          "indices": 3
        }
      ]
    },
    {
      "name": "Cylinder.002",
      "primitives": [
        {
          "attributes": {
            "POSITION": 10,
            "NORMAL": 11,
            "TEXCOORD_0": 12
          },
          "mode": 4,
          "material": 0,
          "indices": 4
        }
      ]
    },
    {
      "name": "Cylinder",
      "primitives": [
        {
          "attributes": {
            "POSITION": 13,
            "NORMAL": 14,
            "TEXCOORD_0": 15
          },
          "mode": 4,
          "material": 0,
          "indices": 5
        }
      ]
    },
    {
      "name": "Cylinder.001",
      "primitives": [
        {
          "attributes": {
            "POSITION": 16,
            "NORMAL": 17,
            "TEXCOORD_0": 18
          },
          "mode": 4,
          "material": 0,
          "indices": 3
        }
      ]
    },
    {
      "name": "Cylinder.005",
      "primitives": [
        {
          "attributes": {
            "POSITION": 19,
            "NORMAL": 20,
            "TEXCOORD_0": 21
          },
          "mode": 4,
          "material": 1,
          "indices": 6
        }
      ]
    },
    {
      "name": "Cylinder.007",
      "primitives": [
        {
          "attributes": {
            "POSITION": 22,
            "NORMAL": 23,
            "TEXCOORD_0": 24
          },
          "mode": 4,
          "material": 2,
          "indices": 7
        }
      ]
    },
    {
      "name": "Cylinder.008",
      "primitives": [
        {
          "attributes": {
            "POSITION": 25,
            "NORMAL": 26,
            "TEXCOORD_0": 27
          },
          "mode": 4,
          "material": 2,
          "indices": 8
        }
      ]
    },
    {
      "name": "Cylinder.006",
      "primitives": [
        {
          "attributes": {
            "POSITION": 28,
            "NORMAL": 29,
            "TEXCOORD_0": 30
          },
          "mode": 4,
          "material": 2,
          "indices": 9
        }
      ]
    }
  ],
  "nodes": [
    {
      "name": "metal_trash_can_handle_left",
      "translation": [
        0.22699838876724243,
        0.6497123837471008,
        -0.00019631585746537894
      ],
      "rotation": [
        0,
        0,
        -0.793353259563446,
        0.6087616086006165
      ],
      "mesh": 0
    },
    {
      "name": "metal_trash_can_lid",
      "translation": [
        0.12573447823524475,
        0.2858511209487915,
        -0.000007379671842500102
      ],
      "rotation": [
        0,
        0,
        0.6117722392082214,
        0.7910341024398804
      ],
      "mesh": 1
    },
    {
      "name": "metal_trash_can",
      "translation": [
        0.5,
        0,
        0
      ],
      "mesh": 2
    },
    {
      "name": "metal_trash_can_handle_right",
      "translation": [
        0.7945746779441833,
        0.6497123837471008,
        -0.00019631585746537894
      ],
      "rotation": [
        0,
        0,
        -0.793353259563446,
        0.6087616086006165
      ],
      "mesh": 3
    },
    {
      "name": "metal_trash_can_rust",
      "translation": [
        -0.5,
        0,
        0
      ],
      "mesh": 4
    },
    {
      "name": "metal_trash_can_rust_handle_left",
      "translation": [
        -0.7730016112327576,
        0.6497123837471008,
        -0.00019631585746537894
      ],
      "rotation": [
        0,
        0,
        -0.793353259563446,
        0.6087616086006165
      ],
      "mesh": 5
    },
    {
      "name": "metal_trash_can_rust_handle_right",
      "translation": [
        -0.22699832916259766,
        0.6497123837471008,
        -0.00019631585746537894
      ],
      "rotation": [
        0,
        0,
        -0.32344791293144226,
        0.9462459683418274
      ],
      "mesh": 6
    },
    {
      "name": "metal_trash_can_rust_lid",
      "translation": [
        -0.8742655515670776,
        0.2858511209487915,
        -0.000007379671842500102
      ],
      "rotation": [
        0,
        0,
        0.6117722392082214,
        0.7910341024398804
      ],
      "mesh": 7
    }
  ],
  "scenes": [
    {
      "name": "Scene",
      "nodes": [
        0,
        1,
        2,
        3,
        4,
        5,
        6,
        7
      ]
    }
  ],
  "scene": 0
}