{
  "asset": {
    "generator": "glTF-Transform v4.5.1",
    "version": "2.0"
  },
  "accessors": [
    {
      "type": "VEC3",
      "componentType": 5126,
      "count": 5068,
      "max": [
        0.4600001573562622,
        1.1203334331512451,
        0.22200000286102295
      ],
      "min": [
        -0.46000003814697266,
        0,
        -0.20999999344348907
      ],
      "bufferView": 0,
      "byteOffset": 0
    },
    {
      "type": "VEC3",
      "componentType": 5126,
      "count": 5068,
      "bufferView": 0,
      "byteOffset": 12
    },
    {
      "type": "VEC2",
      "componentType": 5126,
      "count": 5068,
      "bufferView": 0,
      "byteOffset": 24
    },
    {
      "type": "SCALAR",
      "componentType": 5123,
      "count": 18804,
      "bufferView": 1,
      "byteOffset": 0
    }
  ],
  "bufferViews": [
    {
      "buffer": 0,
      "byteOffset": 0,
      "byteLength": 162176,
      "byteStride": 32,
      "target": 34962
    },
    {
      "buffer": 0,
      "byteOffset": 162176,
      "byteLength": 37608,
      "target": 34963
    }
  ],
  "samplers": [
    {
      "magFilter": 9729,
      "minFilter": 9987,
      "wrapS": 10497,
      "wrapT": 10497
    }
  ],
  "textures": [
    {
      "source": 1,
      "sampler": 0
    },
    {
      "source": 0,
      "sampler": 0
    },
    {
      "source": 2,
      "sampler": 0
    }
  ],
  "images": [
    {
      "name": "utility_box_02_nor_gl",
      "mimeType": "image/jpeg",
      "uri": "textures/utility_box_02_nor_gl_1k.jpg"
    },
    {
      "name": "utility_box_02_diff",
      "mimeType": "image/jpeg",
      "uri": "textures/utility_box_02_diff_1k.jpg"
    },
    {
      "name": "utility_box_02_metal-utility_box_02_rough",
      "mimeType": "image/jpeg",
      "uri": "textures/utility_box_02_arm_1k.jpg"
    }
  ],
  "buffers": [
    {
      "uri": "utility_box_02.bin",
      "byteLength": 199784
    }
  ],
  "materials": [
    {
      "name": "utility_box_02",
      "doubleSided": true,
      "pbrMetallicRoughness": {
        "baseColorTexture": {
          "index": 0
        },
        "metallicRoughnessTexture": {
          "index": 2
        }
      },
      "normalTexture": {
        "index": 1
      }
    }
  ],
  "meshes": [
    {
      "name": "Cube.016",
      "primitives": [
        {
          "attributes": {
            "POSITION": 0,
            "NORMAL": 1,
            "TEXCOORD_0": 2
          },
          "mode": 4,
          "material": 0,
          "indices": 3
        }
      ]
    }
  ],
  "nodes": [
    {
      "name": "utility_box_02",
      "mesh": 0
    }
  ],
  "scenes": [
    {
      "name": "Scene",
      "nodes": [
        0
      ]
    }
  ],
  "scene": 0
}